<svg width="17" height="17" viewBox="0 0 17 17" fill="none" xmlns="http://www.w3.org/2000/svg">
<g clip-path="url(#clip0_1838_68)">
<path d="M8.5 8.49994C9.34057 8.49994 10.1623 8.25068 10.8612 7.78369C11.5601 7.31669 12.1048 6.65293 12.4265 5.87635C12.7482 5.09976 12.8323 4.24523 12.6683 3.42081C12.5044 2.59639 12.0996 1.83911 11.5052 1.24474C10.9108 0.650364 10.1536 0.245591 9.32913 0.0816034C8.50471 -0.0823838 7.65018 0.00178043 6.8736 0.323453C6.09701 0.645125 5.43325 1.18986 4.96625 1.88877C4.49926 2.58768 4.25 3.40937 4.25 4.24994C4.25113 5.37677 4.69925 6.45712 5.49604 7.2539C6.29282 8.05069 7.37318 8.49882 8.5 8.49994ZM8.5 1.41661C9.06038 1.41661 9.60818 1.58278 10.0741 1.89411C10.5401 2.20544 10.9032 2.64795 11.1177 3.16567C11.3321 3.6834 11.3882 4.25308 11.2789 4.8027C11.1696 5.35231 10.8997 5.85716 10.5035 6.25341C10.1072 6.64966 9.60237 6.91951 9.05276 7.02883C8.50314 7.13816 7.93345 7.08205 7.41573 6.8676C6.89801 6.65315 6.4555 6.29 6.14417 5.82406C5.83284 5.35812 5.66667 4.81032 5.66667 4.24994C5.66667 3.49849 5.96518 2.77782 6.49653 2.24647C7.02788 1.71512 7.74855 1.41661 8.5 1.41661V1.41661Z" fill="black"/>
<path d="M8.5 9.91711C6.80982 9.91899 5.1894 10.5912 3.99426 11.7864C2.79913 12.9815 2.12687 14.6019 2.125 16.2921C2.125 16.48 2.19963 16.6601 2.33247 16.793C2.4653 16.9258 2.64547 17.0004 2.83333 17.0004C3.02119 17.0004 3.20136 16.9258 3.3342 16.793C3.46704 16.6601 3.54167 16.48 3.54167 16.2921C3.54167 14.9771 4.06406 13.7159 4.99393 12.786C5.9238 11.8562 7.18497 11.3338 8.5 11.3338C9.81503 11.3338 11.0762 11.8562 12.0061 12.786C12.9359 13.7159 13.4583 14.9771 13.4583 16.2921C13.4583 16.48 13.533 16.6601 13.6658 16.793C13.7986 16.9258 13.9788 17.0004 14.1667 17.0004C14.3545 17.0004 14.5347 16.9258 14.6675 16.793C14.8004 16.6601 14.875 16.48 14.875 16.2921C14.8731 14.6019 14.2009 12.9815 13.0057 11.7864C11.8106 10.5912 10.1902 9.91899 8.5 9.91711V9.91711Z" fill="black"/>
</g>
<defs>
<clipPath id="clip0_1838_68">
<rect width="17" height="17" fill="white"/>
</clipPath>
</defs>
</svg>
