<svg width="17" height="17" viewBox="0 0 17 17" fill="none" xmlns="http://www.w3.org/2000/svg">
<g clip-path="url(#clip0_1838_75)">
<path d="M0.708333 3.36483H2.64633C2.79837 3.92422 3.13025 4.41804 3.59077 4.77011C4.0513 5.12218 4.61488 5.31293 5.19456 5.31293C5.77425 5.31293 6.33783 5.12218 6.79835 4.77011C7.25888 4.41804 7.59076 3.92422 7.74279 3.36483H16.2917C16.4795 3.36483 16.6597 3.2902 16.7925 3.15736C16.9254 3.02452 17 2.84436 17 2.65649C17 2.46863 16.9254 2.28847 16.7925 2.15563C16.6597 2.02279 16.4795 1.94816 16.2917 1.94816H7.74279C7.59076 1.38877 7.25888 0.894944 6.79835 0.542877C6.33783 0.190809 5.77425 6.10352e-05 5.19456 6.10352e-05C4.61488 6.10352e-05 4.0513 0.190809 3.59077 0.542877C3.13025 0.894944 2.79837 1.38877 2.64633 1.94816H0.708333C0.520472 1.94816 0.340304 2.02279 0.207466 2.15563C0.0746278 2.28847 0 2.46863 0 2.65649C0 2.84436 0.0746278 3.02452 0.207466 3.15736C0.340304 3.2902 0.520472 3.36483 0.708333 3.36483V3.36483ZM5.19421 1.41691C5.43937 1.41691 5.67904 1.48961 5.88288 1.62582C6.08673 1.76203 6.24561 1.95562 6.33943 2.18213C6.43325 2.40863 6.4578 2.65787 6.40997 2.89833C6.36214 3.13878 6.24408 3.35965 6.07073 3.53301C5.89737 3.70637 5.67649 3.82443 5.43604 3.87226C5.19558 3.92009 4.94634 3.89554 4.71984 3.80172C4.49334 3.7079 4.29974 3.54902 4.16353 3.34517C4.02733 3.14132 3.95463 2.90166 3.95463 2.65649C3.955 2.32785 4.08572 2.01278 4.3181 1.78039C4.55049 1.54801 4.86557 1.41729 5.19421 1.41691V1.41691Z" fill="currentColor"/>
<path d="M16.2917 7.79101H14.3537C14.2019 7.23149 13.8701 6.73749 13.4096 6.38528C12.9492 6.03306 12.3855 5.84222 11.8058 5.84222C11.226 5.84222 10.6624 6.03306 10.2019 6.38528C9.74144 6.73749 9.4097 7.23149 9.25792 7.79101H0.708333C0.520472 7.79101 0.340304 7.86564 0.207466 7.99848C0.0746278 8.13132 0 8.31148 0 8.49934C0 8.6872 0.0746278 8.86737 0.207466 9.00021C0.340304 9.13305 0.520472 9.20768 0.708333 9.20768H9.25792C9.4097 9.7672 9.74144 10.2612 10.2019 10.6134C10.6624 10.9656 11.226 11.1565 11.8058 11.1565C12.3855 11.1565 12.9492 10.9656 13.4096 10.6134C13.8701 10.2612 14.2019 9.7672 14.3537 9.20768H16.2917C16.4795 9.20768 16.6597 9.13305 16.7925 9.00021C16.9254 8.86737 17 8.6872 17 8.49934C17 8.31148 16.9254 8.13132 16.7925 7.99848C16.6597 7.86564 16.4795 7.79101 16.2917 7.79101ZM11.8058 9.73892C11.5606 9.73892 11.321 9.66622 11.1171 9.53002C10.9133 9.39381 10.7544 9.20021 10.6606 8.97371C10.5667 8.74721 10.5422 8.49797 10.59 8.25751C10.6379 8.01706 10.7559 7.79619 10.9293 7.62283C11.1026 7.44947 11.3235 7.33141 11.564 7.28358C11.8044 7.23575 12.0537 7.2603 12.2802 7.35412C12.5067 7.44794 12.7003 7.60682 12.8365 7.81067C12.9727 8.01452 13.0454 8.25418 13.0454 8.49934C13.045 8.82799 12.9143 9.14306 12.6819 9.37545C12.4495 9.60783 12.1344 9.73855 11.8058 9.73892V9.73892Z" fill="currentColor"/>
<path d="M16.2917 13.6357H7.74279C7.59076 13.0763 7.25888 12.5824 6.79835 12.2304C6.33783 11.8783 5.77425 11.6876 5.19456 11.6876C4.61488 11.6876 4.0513 11.8783 3.59077 12.2304C3.13025 12.5824 2.79837 13.0763 2.64633 13.6357H0.708333C0.520472 13.6357 0.340304 13.7103 0.207466 13.8431C0.0746278 13.976 0 14.1561 0 14.344C0 14.5318 0.0746278 14.712 0.207466 14.8449C0.340304 14.9777 0.520472 15.0523 0.708333 15.0523H2.64633C2.79837 15.6117 3.13025 16.1055 3.59077 16.4576C4.0513 16.8097 4.61488 17.0004 5.19456 17.0004C5.77425 17.0004 6.33783 16.8097 6.79835 16.4576C7.25888 16.1055 7.59076 15.6117 7.74279 15.0523H16.2917C16.4795 15.0523 16.6597 14.9777 16.7925 14.8449C16.9254 14.712 17 14.5318 17 14.344C17 14.1561 16.9254 13.976 16.7925 13.8431C16.6597 13.7103 16.4795 13.6357 16.2917 13.6357ZM5.19421 15.5836C4.94904 15.5836 4.70938 15.5109 4.50553 15.3747C4.30168 15.2385 4.1428 15.0449 4.04898 14.8184C3.95516 14.5918 3.93061 14.3426 3.97844 14.1022C4.02627 13.8617 4.14433 13.6408 4.31769 13.4675C4.49105 13.2941 4.71192 13.1761 4.95238 13.1282C5.19283 13.0804 5.44207 13.1049 5.66858 13.1988C5.89508 13.2926 6.08868 13.4515 6.22488 13.6553C6.36109 13.8592 6.43379 14.0988 6.43379 14.344C6.43323 14.6726 6.30245 14.9875 6.07011 15.2199C5.83776 15.4522 5.52279 15.583 5.19421 15.5836V15.5836Z" fill="currentColor"/>
</g>
<defs>
<clipPath id="clip0_1838_75">
<rect width="17" height="17" fill="white"/>
</clipPath>
</defs>
</svg>
