<svg width="17" height="17" viewBox="0 0 17 17" fill="none" xmlns="http://www.w3.org/2000/svg">
<path d="M16.3776 6.42381L11.0049 1.05039C10.34 0.387386 9.43926 0.0150757 8.50025 0.0150757C7.56124 0.0150757 6.66054 0.387386 5.99559 1.05039L0.622878 6.42381C0.424846 6.62057 0.26784 6.85469 0.160961 7.11258C0.0540826 7.37048 -0.000542393 7.64702 0.000252697 7.92619V14.8799C0.000252697 15.4435 0.224136 15.984 0.622651 16.3825C1.02117 16.781 1.56167 17.0049 2.12525 17.0049H14.8753C15.4388 17.0049 15.9793 16.781 16.3779 16.3825C16.7764 15.984 17.0003 15.4435 17.0003 14.8799V7.92619C17.001 7.64702 16.9464 7.37048 16.8395 7.11258C16.7327 6.85469 16.5757 6.62057 16.3776 6.42381V6.42381ZM10.6253 15.5882H6.37525V12.8016C6.37525 12.2381 6.59914 11.6976 6.99765 11.299C7.39617 10.9005 7.93667 10.6766 8.50025 10.6766C9.06384 10.6766 9.60434 10.9005 10.0029 11.299C10.4014 11.6976 10.6253 12.2381 10.6253 12.8016V15.5882ZM15.5836 14.8799C15.5836 15.0678 15.509 15.2479 15.3761 15.3808C15.2433 15.5136 15.0631 15.5882 14.8753 15.5882H12.0419V12.8016C12.0419 11.8623 11.6688 10.9615 11.0046 10.2973C10.3404 9.63312 9.43956 9.25998 8.50025 9.25998C7.56094 9.25998 6.66011 9.63312 5.99592 10.2973C5.33173 10.9615 4.95859 11.8623 4.95859 12.8016V15.5882H2.12525C1.93739 15.5882 1.75722 15.5136 1.62439 15.3808C1.49155 15.2479 1.41692 15.0678 1.41692 14.8799V7.92619C1.41758 7.73846 1.49214 7.55855 1.62446 7.42539L6.99717 2.0541C7.39646 1.65668 7.93689 1.43356 8.50025 1.43356C9.06362 1.43356 9.60405 1.65668 10.0033 2.0541L15.376 7.42752C15.5079 7.56015 15.5824 7.7392 15.5836 7.92619V14.8799Z" fill="black"/>
</svg>
