<svg width="17" height="17" viewBox="0 0 17 17" fill="none" xmlns="http://www.w3.org/2000/svg">
<g clip-path="url(#clip0_1837_50)">
<path d="M13.4583 0.708191H3.54167C2.6027 0.709316 1.70252 1.08282 1.03857 1.74676C0.374625 2.41071 0.00112473 3.31089 0 4.24986L0 12.7499C0.00112473 13.6888 0.374625 14.589 1.03857 15.253C1.70252 15.9169 2.6027 16.2904 3.54167 16.2915H13.4583C14.3973 16.2904 15.2975 15.9169 15.9614 15.253C16.6254 14.589 16.9989 13.6888 17 12.7499V4.24986C16.9989 3.31089 16.6254 2.41071 15.9614 1.74676C15.2975 1.08282 14.3973 0.709316 13.4583 0.708191V0.708191ZM3.54167 2.12486H13.4583C13.8825 2.12569 14.2967 2.25343 14.6476 2.49164C14.9985 2.72984 15.2701 3.06761 15.4275 3.46148L10.0031 8.88661C9.60389 9.2842 9.06342 9.50744 8.5 9.50744C7.93658 9.50744 7.39611 9.2842 6.99692 8.88661L1.5725 3.46148C1.72986 3.06761 2.00148 2.72984 2.35241 2.49164C2.70334 2.25343 3.11753 2.12569 3.54167 2.12486V2.12486ZM13.4583 14.8749H3.54167C2.97808 14.8749 2.43758 14.651 2.03906 14.2525C1.64055 13.8539 1.41667 13.3134 1.41667 12.7499V5.31236L5.99533 9.88819C6.66019 10.5514 7.56093 10.9238 8.5 10.9238C9.43907 10.9238 10.3398 10.5514 11.0047 9.88819L15.5833 5.31236V12.7499C15.5833 13.3134 15.3594 13.8539 14.9609 14.2525C14.5624 14.651 14.0219 14.8749 13.4583 14.8749Z" fill="currentColor"/>
</g>
<defs>
<clipPath id="clip0_1837_50">
<rect width="17" height="17" fill="white"/>
</clipPath>
</defs>
</svg>
