<svg width="17" height="17" viewBox="0 0 17 17" fill="none" xmlns="http://www.w3.org/2000/svg">
<g clip-path="url(#clip0_1838_107)">
<path d="M16.9999 16.2916C16.9999 16.4795 16.9253 16.6597 16.7925 16.7925C16.6596 16.9254 16.4795 17 16.2916 17H0.708254C0.520393 17 0.340225 16.9254 0.207387 16.7925C0.0745486 16.6597 -7.91971e-05 16.4795 -7.91971e-05 16.2916C-7.91971e-05 16.1038 0.0745486 15.9236 0.207387 15.7908C0.340225 15.6579 0.520393 15.5833 0.708254 15.5833H16.2916C16.4795 15.5833 16.6596 15.6579 16.7925 15.7908C16.9253 15.9236 16.9999 16.1038 16.9999 16.2916ZM0.206046 6.05765C0.0534158 5.77454 -0.0172955 5.4545 0.00184777 5.13345C0.020991 4.81239 0.129231 4.50302 0.314421 4.24006C0.617062 3.79602 1.02236 3.43154 1.49592 3.17756L6.80913 0.412228C7.33136 0.140675 7.91131 -0.00109863 8.49992 -0.00109863C9.08853 -0.00109863 9.66849 0.140675 10.1907 0.412228L15.5032 3.17969C15.9768 3.43367 16.3821 3.79814 16.6847 4.24219C16.8699 4.50515 16.9781 4.81452 16.9973 5.13557C17.0164 5.45663 16.9457 5.77667 16.7931 6.05977C16.6288 6.37061 16.3823 6.6304 16.0806 6.81088C15.7788 6.99135 15.4333 7.08558 15.0818 7.08331H14.8749V12.75H15.5833C15.7711 12.75 15.9513 12.8246 16.0841 12.9574C16.217 13.0903 16.2916 13.2705 16.2916 13.4583C16.2916 13.6462 16.217 13.8263 16.0841 13.9592C15.9513 14.092 15.7711 14.1666 15.5833 14.1666H1.41659C1.22873 14.1666 1.04856 14.092 0.91572 13.9592C0.782882 13.8263 0.708254 13.6462 0.708254 13.4583C0.708254 13.2705 0.782882 13.0903 0.91572 12.9574C1.04856 12.8246 1.22873 12.75 1.41659 12.75H2.12492V7.08331H1.91809C1.56616 7.08551 1.22038 6.99102 0.91848 6.81015C0.616576 6.62929 0.370137 6.36899 0.206046 6.05765V6.05765ZM3.54159 12.75H5.66659V7.08331H3.54159V12.75ZM7.08325 7.08331V12.75H9.91659V7.08331H7.08325ZM13.4583 7.08331H11.3333V12.75H13.4583V7.08331ZM1.46121 5.40102C1.50566 5.48296 1.57179 5.55109 1.65238 5.59794C1.73296 5.64479 1.82489 5.66856 1.91809 5.66665H15.0818C15.175 5.66856 15.2669 5.64479 15.3475 5.59794C15.428 5.55109 15.4942 5.48296 15.5386 5.40102C15.571 5.34688 15.5867 5.28438 15.5836 5.22137C15.5806 5.15836 15.559 5.09765 15.5216 5.04685C15.35 4.79179 15.1194 4.58186 14.8494 4.43485L9.53692 1.66739C9.21676 1.50124 8.86134 1.4145 8.50063 1.4145C8.13992 1.4145 7.7845 1.50124 7.46434 1.66739L2.15184 4.43485C1.88195 4.58233 1.65142 4.79246 1.47963 5.04756C1.44215 5.09814 1.42041 5.15865 1.41714 5.22151C1.41386 5.28438 1.42919 5.34682 1.46121 5.40102V5.40102Z" fill="currentColor"/>
</g>
<defs>
<clipPath id="clip0_1838_107">
<rect width="17" height="17" fill="white"/>
</clipPath>
</defs>
</svg>
