<svg width="17" height="17" viewBox="0 0 17 17" fill="none" xmlns="http://www.w3.org/2000/svg">
<g clip-path="url(#clip0_1837_63)">
<path d="M17 11.3331V14.8748C17 15.4384 16.7761 15.9789 16.3776 16.3774C15.9791 16.7759 15.4386 16.9998 14.875 16.9998H11.3333C10.3396 16.9988 9.36363 16.7364 8.50329 16.2391C7.64296 15.7418 6.92853 15.027 6.43167 14.1664C6.96566 14.1626 7.49783 14.1038 8.01975 13.9908C8.41723 14.4878 8.92146 14.889 9.49506 15.1646C10.0687 15.4402 10.6969 15.5833 11.3333 15.5831H14.875C15.0629 15.5831 15.243 15.5085 15.3759 15.3756C15.5087 15.2428 15.5833 15.0626 15.5833 14.8748V11.3331C15.5832 10.6965 15.4397 10.0681 15.1636 9.49444C14.8874 8.92082 14.4857 8.41672 13.9882 8.01952C14.1021 7.4977 14.1619 6.96553 14.1667 6.43144C15.0273 6.9283 15.7421 7.64273 16.2394 8.50306C16.7367 9.3634 16.999 10.3394 17 11.3331ZM12.7337 6.8359C12.8 5.92331 12.669 5.00715 12.3497 4.14968C12.0304 3.29221 11.5302 2.51352 10.8832 1.86652C10.2362 1.21953 9.45756 0.719388 8.60009 0.400088C7.74262 0.080789 6.82646 -0.050187 5.91387 0.0160604C4.29669 0.200746 2.80282 0.97031 1.71358 2.17984C0.624344 3.38936 0.0148942 4.95539 0 6.58302L0 10.153C0 11.9465 1.06746 12.7498 2.125 12.7498H6.1625C7.79082 12.7358 9.3578 12.1267 10.5682 11.0374C11.7786 9.9481 12.5488 8.45374 12.7337 6.8359V6.8359ZM9.88125 2.86923C10.3841 3.37321 10.7729 3.97933 11.0212 4.64657C11.2695 5.31381 11.3716 6.02661 11.3206 6.73673C11.1694 8.00016 10.5616 9.16477 9.61161 10.0113C8.66161 10.8579 7.43494 11.3279 6.1625 11.3331H2.125C1.46767 11.3331 1.41667 10.43 1.41667 10.153V6.58302C1.42257 5.31112 1.89313 4.08523 2.73977 3.13604C3.58642 2.18686 4.75079 1.57983 6.01375 1.42919C6.13133 1.42069 6.24892 1.41644 6.3665 1.41644C7.01907 1.41583 7.66536 1.54382 8.26843 1.7931C8.87151 2.04237 9.41956 2.40805 9.88125 2.86923Z" fill="currentColor"/>
</g>
<defs>
<clipPath id="clip0_1837_63">
<rect width="17" height="17" fill="white"/>
</clipPath>
</defs>
</svg>
